<?xml version="1.0" standalone="no"?>
<!DOCTYPE svg PUBLIC "-//W3C//DTD SVG 20010904//EN"
 "http://www.w3.org/TR/2001/REC-SVG-20010904/DTD/svg10.dtd">
<svg version="1.0" xmlns="http://www.w3.org/2000/svg"
 width="842.000000pt" height="180.000000pt" viewBox="0 0 842.000000 180.000000"
 preserveAspectRatio="xMidYMid meet">

<g transform="translate(0.000000,180.000000) scale(0.100000,-0.100000)"
fill="#000000" stroke="none">
<path d="M299 1530 c-88 -15 -156 -65 -197 -144 -22 -43 -26 -64 -26 -131 -1
-117 25 -159 180 -291 166 -141 204 -201 191 -310 -15 -137 -162 -206 -306
-143 l-53 22 -19 -24 c-10 -13 -19 -28 -19 -32 0 -4 21 -18 48 -30 39 -18 65
-22 152 -22 95 0 111 3 162 28 69 34 131 101 152 164 9 27 16 79 16 122 -1
133 -48 198 -214 296 -144 84 -186 136 -187 228 -1 54 12 85 47 118 56 52 168
63 242 25 l31 -16 15 54 c9 30 16 56 16 58 0 9 -75 27 -130 32 -30 2 -76 1
-101 -4z"/>
<path d="M763 1533 l-23 -4 0 -539 0 -539 35 -7 c20 -3 38 -5 40 -3 2 3 10
126 17 276 13 255 16 274 39 320 69 133 216 120 249 -23 7 -26 3 -125 -11
-308 -11 -147 -18 -270 -16 -272 2 -3 27 1 54 7 l50 12 6 121 c24 451 22 496
-26 567 -37 55 -81 79 -148 79 -75 0 -104 -12 -158 -63 l-43 -42 6 110 c4 61
9 156 12 213 l6 102 -33 -1 c-19 -1 -44 -4 -56 -6z"/>
<path d="M3960 1526 c-40 -8 -56 -16 -58 -30 -2 -10 -23 -251 -46 -535 l-42
-516 26 -12 c14 -6 42 -14 61 -18 l36 -7 6 119 c4 65 10 267 13 448 4 182 10
336 13 343 4 7 61 -186 127 -429 l119 -442 32 -15 c18 -9 36 -13 39 -9 4 3 61
205 128 449 139 503 132 479 139 458 3 -8 17 -211 32 -450 14 -239 27 -436 29
-437 1 -2 17 -6 34 -9 l32 -7 0 44 c0 24 -7 247 -15 494 -8 248 -15 475 -15
506 l0 57 -87 -20 c-49 -10 -91 -22 -94 -26 -3 -4 -49 -196 -102 -426 -53
-230 -99 -421 -102 -424 -3 -3 -8 -3 -11 0 -5 6 -224 884 -224 900 0 9 2 9
-70 -6z"/>
<path d="M5945 1517 c-143 -5 -262 -11 -263 -12 -9 -8 23 -115 33 -115 7 0 45
7 84 16 40 9 75 14 78 10 4 -4 23 -230 42 -503 l36 -497 33 -7 32 -6 1 181 c1
99 5 334 8 521 l6 340 90 12 c95 14 99 16 110 51 5 17 3 22 -12 20 -10 -1
-135 -6 -278 -11z"/>
<path d="M1775 1345 c-201 -45 -358 -195 -409 -392 -86 -329 176 -664 519
-663 336 1 590 294 535 619 -50 299 -350 502 -645 436z m240 -77 c153 -38 307
-203 331 -355 6 -41 5 -43 -19 -43 -23 0 -26 -5 -29 -37 -2 -31 -7 -39 -25
-41 -22 -3 -23 0 -23 62 l0 66 -85 0 -85 0 0 -62 c0 -43 -5 -67 -17 -80 -26
-29 -33 -22 -33 32 l0 50 -34 0 c-19 0 -38 -5 -41 -10 -3 -6 -17 -7 -31 -4
-18 5 -32 0 -50 -17 -21 -20 -24 -31 -24 -96 0 -53 -4 -73 -13 -73 -25 0 -37
25 -37 77 l0 53 -50 0 -49 0 -3 -102 c-3 -95 -4 -103 -23 -103 -19 0 -20 8
-23 176 -2 161 -4 178 -22 194 -16 14 -20 31 -20 77 0 32 -4 58 -10 58 -5 0
-10 -24 -10 -53 0 -30 -6 -62 -15 -74 -11 -16 -15 -61 -17 -199 l-3 -179 -33
-3 c-31 -3 -34 0 -58 53 -103 225 -5 495 220 601 109 52 213 62 331 32z"/>
<path d="M7822 1239 c-45 -23 -73 -55 -98 -115 -18 -43 -30 -34 -40 32 -8 57
-15 65 -50 58 l-29 -5 3 -392 c2 -216 5 -393 7 -395 5 -6 91 9 105 18 10 6 10
52 1 241 -10 207 -10 240 4 287 26 87 97 152 166 152 30 0 31 1 25 33 -4 17
-9 49 -13 70 -7 44 -19 46 -81 16z"/>
<path d="M2523 1207 c3 -12 38 -193 77 -402 40 -209 73 -382 76 -384 2 -2 27
0 56 5 l53 9 71 298 c39 164 74 300 77 304 8 7 12 -4 32 -97 9 -41 42 -174 74
-295 l58 -220 54 -3 55 -3 92 388 c51 213 93 391 92 394 0 4 -17 9 -38 11
l-39 3 -42 -150 c-90 -315 -134 -460 -141 -468 -7 -8 -22 79 -66 393 -30 216
-33 223 -99 218 l-40 -3 -82 -270 c-46 -148 -88 -290 -94 -315 -7 -30 -13 -40
-19 -30 -9 18 -34 208 -56 435 -9 94 -17 171 -18 171 0 1 -32 9 -69 17 l-69
15 5 -21z"/>
<path d="M5015 1204 c-121 -62 -183 -221 -173 -438 11 -212 95 -328 258 -356
66 -11 194 -1 210 17 4 4 1 31 -7 59 l-15 51 -55 -15 c-109 -31 -221 15 -267
110 -26 54 -48 198 -30 198 5 0 83 -7 174 -15 91 -8 182 -15 203 -15 l37 0 0
83 c0 228 -77 337 -240 337 -39 0 -77 -6 -95 -16z m157 -91 c39 -37 82 -193
58 -208 -5 -3 -70 -2 -145 1 l-137 7 7 46 c3 25 18 70 33 100 46 91 122 114
184 54z"/>
<path d="M6382 1199 c-56 -28 -116 -98 -144 -168 -19 -49 -22 -75 -23 -206 0
-114 4 -163 17 -205 42 -137 123 -200 252 -200 185 1 286 139 286 392 0 201
-57 330 -172 389 -53 27 -159 26 -216 -2z m170 -95 c64 -61 99 -179 101 -334
1 -124 -20 -197 -68 -239 -54 -47 -103 -44 -161 12 -64 61 -87 130 -92 283 -5
163 8 226 59 278 37 36 42 38 85 33 32 -3 55 -13 76 -33z"/>
<path d="M7343 1205 c-31 -13 -33 -17 -33 -67 0 -29 -5 -145 -9 -258 -10 -231
-26 -298 -82 -345 -43 -35 -72 -40 -116 -18 -59 28 -70 75 -88 380 -8 142 -15
269 -15 281 0 23 -2 24 -52 17 -29 -4 -56 -10 -60 -14 -10 -10 31 -530 47
-595 20 -79 49 -122 96 -146 46 -24 137 -27 178 -6 30 16 91 80 91 96 0 6 5
10 10 10 6 0 10 -19 10 -42 0 -75 6 -84 51 -80 21 2 42 8 45 14 7 11 -27 770
-35 780 -3 4 -21 0 -38 -7z"/>
<path d="M8078 1200 c-73 -39 -116 -132 -102 -223 13 -80 54 -128 159 -188 61
-34 121 -96 131 -134 17 -70 -20 -137 -86 -155 -42 -11 -129 9 -151 36 -12 14
-15 12 -25 -17 -21 -58 -17 -76 17 -88 53 -18 168 -13 219 10 60 27 79 45 106
104 57 120 10 236 -136 335 -101 69 -133 125 -110 195 24 74 97 103 174 71 32
-13 36 -13 56 8 l21 23 -50 22 c-66 28 -170 28 -223 1z"/>
</g>
</svg>
