<svg xmlns="http://www.w3.org/2000/svg" xmlns:xlink="http://www.w3.org/1999/xlink" width="1080" zoomAndPan="magnify" viewBox="0 0 810 809.999993" height="1080" preserveAspectRatio="xMidYMid meet" version="1.0"><path fill="#42070a" d="M 405 810 C 181.640625 810 0 628.359375 0 405 C 0 181.640625 181.640625 0 405 0 C 628.359375 0 810 181.640625 810 405 C 810 628.359375 628.359375 810 405 810 Z M 405 24.023438 C 194.914062 24.023438 24.023438 194.914062 24.023438 405 C 24.023438 615.085938 194.914062 785.976562 405 785.976562 C 615.085938 785.976562 785.976562 615.085938 785.976562 405 C 785.976562 194.914062 615.085938 24.023438 405 24.023438 Z M 405 24.023438 " fill-opacity="1" fill-rule="nonzero"/><path fill="#42070a" d="M 442.296875 512.886719 L 398.257812 512.886719 L 398.257812 392.355469 L 398.679688 372.550781 L 399.3125 350.84375 C 391.933594 358.21875 386.878906 363.066406 384.140625 365.175781 L 360.117188 384.351562 L 338.835938 357.800781 L 406.054688 304.277344 L 442.296875 304.277344 Z M 442.296875 512.886719 " fill-opacity="1" fill-rule="nonzero"/></svg>