<svg xmlns="http://www.w3.org/2000/svg" xmlns:xlink="http://www.w3.org/1999/xlink" width="1080" zoomAndPan="magnify" viewBox="0 0 810 809.999993" height="1080" preserveAspectRatio="xMidYMid meet" version="1.0"><path fill="#42070a" d="M 405 810 C 181.640625 810 0 628.359375 0 405 C 0 181.640625 181.640625 0 405 0 C 628.359375 0 810 181.640625 810 405 C 810 628.359375 628.359375 810 405 810 Z M 405 24.023438 C 194.914062 24.023438 24.023438 194.914062 24.023438 405 C 24.023438 615.085938 194.914062 785.976562 405 785.976562 C 615.085938 785.976562 785.976562 615.085938 785.976562 405 C 785.976562 194.914062 615.085938 24.023438 405 24.023438 Z M 405 24.023438 " fill-opacity="1" fill-rule="nonzero"/><path fill="#42070a" d="M 479.171875 512.886719 L 333.355469 512.886719 L 333.355469 482.332031 L 385.613281 429.441406 C 401.207031 413.640625 411.320312 402.472656 415.957031 396.359375 C 420.804688 390.25 424.175781 384.558594 426.28125 379.292969 C 428.390625 374.023438 429.441406 368.546875 429.441406 363.066406 C 429.441406 354.636719 427.125 348.527344 422.488281 344.3125 C 417.855469 340.308594 411.742188 338.203125 403.945312 338.203125 C 395.9375 338.203125 387.933594 340.097656 380.347656 343.679688 C 372.761719 347.472656 364.753906 352.742188 356.535156 359.484375 L 332.722656 331.25 C 343.050781 322.609375 351.476562 316.289062 358.21875 312.707031 C 364.964844 309.125 372.339844 306.382812 380.347656 304.277344 C 388.351562 302.378906 397.203125 301.328125 407.105469 301.328125 C 420.171875 301.328125 431.550781 303.644531 441.664062 308.492188 C 451.570312 313.335938 459.363281 319.871094 464.84375 328.507812 C 470.324219 337.148438 473.0625 346.84375 473.0625 357.800781 C 473.0625 367.492188 471.375 376.34375 468.003906 384.769531 C 464.632812 393.199219 459.363281 401.839844 452.410156 410.6875 C 445.246094 419.539062 432.816406 432.183594 414.902344 448.40625 L 388.140625 473.695312 L 388.140625 475.589844 L 478.960938 475.589844 L 478.960938 512.886719 Z M 479.171875 512.886719 " fill-opacity="1" fill-rule="nonzero"/></svg>