<svg xmlns="http://www.w3.org/2000/svg" xmlns:xlink="http://www.w3.org/1999/xlink" width="1080" zoomAndPan="magnify" viewBox="0 0 810 809.999993" height="1080" preserveAspectRatio="xMidYMid meet" version="1.0"><path fill="#42070a" d="M 405 810 C 181.640625 810 0 628.359375 0 405 C 0 181.640625 181.640625 0 405 0 C 628.359375 0 810 181.640625 810 405 C 810 628.359375 628.359375 810 405 810 Z M 405 24.023438 C 194.914062 24.023438 24.023438 194.914062 24.023438 405 C 24.023438 615.085938 194.914062 785.976562 405 785.976562 C 615.085938 785.976562 785.976562 615.085938 785.976562 405 C 785.976562 194.914062 615.085938 24.023438 405 24.023438 Z M 405 24.023438 " fill-opacity="1" fill-rule="nonzero"/><path fill="#42070a" d="M 470.953125 351.054688 C 470.953125 364.121094 466.949219 375.078125 459.15625 384.351562 C 451.359375 393.410156 440.191406 399.730469 425.859375 403.105469 L 425.859375 403.945312 C 442.71875 406.054688 455.363281 411.109375 464 419.328125 C 472.640625 427.546875 477.066406 438.503906 477.066406 452.199219 C 477.066406 472.21875 469.691406 487.8125 455.152344 498.980469 C 440.613281 510.148438 419.75 515.835938 392.777344 515.835938 C 370.230469 515.835938 350.003906 512.042969 332.511719 504.667969 L 332.511719 467.160156 C 340.519531 471.164062 349.582031 474.535156 359.273438 477.066406 C 368.96875 479.59375 378.660156 480.859375 388.140625 480.859375 C 402.683594 480.859375 413.429688 478.328125 420.382812 473.484375 C 427.335938 468.636719 430.707031 460.628906 430.707031 449.671875 C 430.707031 439.980469 426.703125 433.027344 418.695312 428.8125 C 410.6875 424.597656 398.046875 422.699219 380.558594 422.699219 L 364.753906 422.699219 L 364.753906 388.984375 L 380.765625 388.984375 C 396.992188 388.984375 408.792969 386.878906 416.167969 382.664062 C 423.542969 378.449219 427.335938 371.285156 427.335938 360.960938 C 427.335938 345.15625 417.433594 337.359375 397.625 337.359375 C 390.882812 337.359375 383.71875 338.414062 376.765625 340.730469 C 369.597656 343.050781 361.804688 347.050781 353.164062 352.53125 L 332.722656 322.1875 C 351.6875 308.492188 374.445312 301.75 400.785156 301.75 C 422.277344 301.75 439.347656 306.171875 451.988281 314.8125 C 464.632812 323.453125 470.953125 335.464844 470.953125 351.054688 Z M 470.953125 351.054688 " fill-opacity="1" fill-rule="nonzero"/></svg>