<svg xmlns="http://www.w3.org/2000/svg" viewBox="0 0 96 96" id="planning"><linearGradient id="a" x1="23.75" x2="72.578" y1="48" y2="48" gradientUnits="userSpaceOnUse"><stop offset="0" stop-color="#2b2f82"></stop><stop offset="1" stop-color="#bf4f9d"></stop></linearGradient><path fill="url(#a)" d="M74 25H48.5v-2.071c.86-.224 1.5-1 1.5-1.929 0-1.103-.897-2-2-2s-2 .897-2 2c0 .929.64 1.705 1.5 1.929V25H22c-1.103 0-2 .897-2 2s.897 2 2 2h1v34.5a.5.5 0 0 0 .5.5h12.371l-2.859 12.388A.502.502 0 0 0 33.5 77h4a.5.5 0 0 0 .487-.388L39.052 72h17.897l1.064 4.612A.5.5 0 0 0 58.5 77h4a.502.502 0 0 0 .488-.612L60.129 64H72.5a.5.5 0 0 0 .5-.5V29h1c1.103 0 2-.897 2-2s-.897-2-2-2zm-27-4a1.001 1.001 0 1 1 1 1c-.552 0-1-.449-1-1zm-9.897 55h-2.974l2.769-12h2.974l-2.769 12zm17.999-12 .923 4h-16.05l.923-4h14.204zm-15.82 7 .462-2h16.512l.462 2H39.282zm22.589 5h-2.974l-2.769-12h2.974l2.769 12zM72 63H24V29h48v34zm2-35H22a1.001 1.001 0 0 1 0-2h52a1.001 1.001 0 0 1 0 2z"></path><linearGradient id="b" x1="23.75" x2="72.578" y1="46.504" y2="46.504" gradientUnits="userSpaceOnUse"><stop offset="0" stop-color="#2b2f82"></stop><stop offset="1" stop-color="#bf4f9d"></stop></linearGradient><path fill="url(#b)" d="M28.497 61h6c1.208 0 2.217-.86 2.449-2h8.319l2.861 2.861a.498.498 0 0 0 .708 0L51.695 59h7.352c.232 1.14 1.242 2 2.449 2h6c1.379 0 2.5-1.122 2.5-2.5s-1.121-2.5-2.5-2.5h-6c-1.208 0-2.217.86-2.449 2h-7.352l-2.676-2.676L49.002 50H51v1.5a.5.5 0 0 0 .5.5h8a.5.5 0 0 0 .5-.5v-4a.5.5 0 0 0-.5-.5H56v-3h4.5a.5.5 0 0 0 .5-.5v-4a.5.5 0 0 0-.5-.5H56v-1.5a.5.5 0 0 0-.5-.5h-7v-1h4c1.379 0 2.5-1.122 2.5-2.5S53.879 31 52.5 31h-9c-1.379 0-2.5 1.122-2.5 2.5s1.121 2.5 2.5 2.5h4v1h-7a.5.5 0 0 0-.5.5V39h-4.5a.5.5 0 0 0-.5.5V41h-3.5a.5.5 0 0 0-.5.5v4.766l-2.881 2.881a.5.5 0 0 0 0 .707L31 52.734V56h-2.503c-1.379 0-2.5 1.122-2.5 2.5s1.121 2.5 2.5 2.5zM42 33.5c0-.827.673-1.5 1.5-1.5h9c.827 0 1.5.673 1.5 1.5s-.673 1.5-1.5 1.5h-9c-.827 0-1.5-.673-1.5-1.5zM61.497 57h6c.827 0 1.5.673 1.5 1.5s-.673 1.5-1.5 1.5h-6c-.827 0-1.5-.673-1.5-1.5s.673-1.5 1.5-1.5zM48.48 60.801l-2.3-2.301 2.301-2.301 2.301 2.301-2.302 2.301zM59 51h-7v-3h7v3zm1-8h-9v-3h9v3zm-24-3h9v3h-9v-3zm-1 2v1.5a.5.5 0 0 0 .5.5h10a.5.5 0 0 0 .5-.5v-4a.5.5 0 0 0-.5-.5H41v-1h14v1h-4.5a.5.5 0 0 0-.5.5v4a.5.5 0 0 0 .5.5H55v3h-3.5a.5.5 0 0 0-.5.5V49h-5v-1.5a.5.5 0 0 0-.5-.5h-8a.5.5 0 0 0-.5.5V49h-2.305L32 46.305V42h3zm3 6h7v3h-7v-3zm-6.52-.801 2.301 2.301-2.301 2.301-2.3-2.301 2.3-2.301zm.52 5.496L34.695 50H37v1.5a.5.5 0 0 0 .5.5h8a.5.5 0 0 0 .5-.5V50h1.998l-.017 5.284L45.266 58h-8.319a2.503 2.503 0 0 0-2.449-2H32v-3.305zM28.497 57h6a1.5 1.5 0 0 1 1.497 1.471c-.001.01-.006.019-.006.029s.005.019.006.029A1.5 1.5 0 0 1 34.497 60h-6c-.827 0-1.5-.673-1.5-1.5s.673-1.5 1.5-1.5z"></path></svg>