<svg xmlns="http://www.w3.org/2000/svg" enable-background="new 0 0 64 64" viewBox="0 0 64 64" id="business">
    <polygon fill="#b4cbea" points="32 7.751 11 19.875 11 44.124 32 56.249 53 44.124 53 19.875"></polygon>
    <polygon fill="#b4cbea" points="32 7.751 11 19.875 11 44.124 32 56.249"></polygon>
    <polygon fill="#79a1d5" points="32 29.924 15.311 46.613 32 56.249"></polygon>
    <polygon fill="#f4f8f8" points="32 31.909 52.922 19.83 32 7.751 11.078 19.83"></polygon>
    <polygon fill="#dbe7f6" points="32 31.909 52.922 19.83 46.057 15.867 30.742 31.183"></polygon>
    <circle cx="48" cy="41.52" r="2" fill="#b4cbea" transform="rotate(-14.999 48.004 41.523)"></circle>
    <path fill="#79a1d5"
          d="M49.932,41.003c-0.094-0.352-0.283-0.651-0.524-0.891l-2.817,2.817c0.489,0.488,1.211,0.715,1.926,0.524    C49.585,43.166,50.218,42.07,49.932,41.003z"></path>
    <circle cx="16" cy="41.52" r="2" fill="#b4cbea" transform="rotate(-14.999 16.002 41.523)"></circle>
    <path fill="#79a1d5"
          d="M17.932,41.003c-0.094-0.352-0.283-0.651-0.524-0.891l-2.817,2.817c0.489,0.488,1.211,0.715,1.926,0.524    C17.585,43.166,18.218,42.07,17.932,41.003z"></path>
    <circle cx="32" cy="13.518" r="2" fill="#dbe7f6" transform="rotate(-45.001 32 13.519)"></circle>
    <path fill="#b4cbea"
          d="M33.414,12.104c-0.003-0.003-0.006-0.005-0.009-0.007l-2.827,2.827c0.003,0.003,0.005,0.006,0.007,0.009    c0.781,0.781,2.047,0.781,2.828,0S34.195,12.885,33.414,12.104z"></path>
    <path fill="#437abe"
          d="M32,56.749c-0.086,0-0.173-0.022-0.25-0.067l-21-12.124c-0.155-0.089-0.25-0.254-0.25-0.433V19.875    c0-0.179,0.095-0.344,0.25-0.433l21-12.124c0.154-0.089,0.346-0.089,0.5,0l21,12.124c0.155,0.089,0.25,0.254,0.25,0.433v24.249    c0,0.179-0.095,0.344-0.25,0.433l-21,12.124C32.173,56.726,32.086,56.749,32,56.749z M11.5,43.836L32,55.671l20.5-11.835V20.164    L32,8.329L11.5,20.164V43.836z"></path>
    <path fill="#437abe"
          d="M32 56.702c-.276 0-.5-.224-.5-.5v-8.684c0-.276.224-.5.5-.5s.5.224.5.5v8.684C32.5 56.478 32.276 56.702 32 56.702zM22.003 26.84c-.085 0-.171-.021-.25-.067l-10.945-6.319c-.239-.138-.321-.444-.183-.683.138-.24.444-.321.683-.183l10.945 6.319c.239.138.321.444.183.683C22.344 26.751 22.176 26.84 22.003 26.84zM41.994 26.618c-.173 0-.341-.089-.434-.25-.138-.239-.056-.545.183-.683l10.813-6.243c.238-.139.544-.057.683.183.138.239.056.545-.183.683l-10.813 6.243C42.165 26.597 42.079 26.618 41.994 26.618zM32 44.021c-.276 0-.5-.224-.5-.5V20.522c0-.276.224-.5.5-.5s.5.224.5.5v22.999C32.5 43.797 32.276 44.021 32 44.021z"></path>
    <path fill="#437abe"
          d="M33.571,32.021H30.54c-2.226,0-4.036-1.796-4.036-4.003s1.811-4.003,4.036-4.003h6.434    c0.276,0,0.5,0.224,0.5,0.5s-0.224,0.5-0.5,0.5H30.54c-1.674,0-3.036,1.347-3.036,3.003s1.362,3.003,3.036,3.003h3.031    c0.276,0,0.5,0.224,0.5,0.5S33.847,32.021,33.571,32.021z"></path>
    <path fill="#437abe"
          d="M33.481 39.005h-6.478c-.276 0-.5-.224-.5-.5s.224-.5.5-.5h6.478c1.65 0 2.992-1.342 2.992-2.992s-1.342-2.992-2.992-2.992h-1.996c-.276 0-.5-.224-.5-.5s.224-.5.5-.5h1.996c2.201 0 3.992 1.791 3.992 3.992S35.683 39.005 33.481 39.005zM32 16.019c-1.378 0-2.5-1.122-2.5-2.5s1.122-2.5 2.5-2.5 2.5 1.122 2.5 2.5S33.378 16.019 32 16.019zM32 12.019c-.827 0-1.5.673-1.5 1.5s.673 1.5 1.5 1.5 1.5-.673 1.5-1.5S32.827 12.019 32 12.019zM47.996 44.021c-.433 0-.861-.114-1.246-.336-.578-.334-.992-.873-1.165-1.518s-.084-1.319.25-1.897c.69-1.194 2.221-1.605 3.415-.916 1.194.69 1.604 2.222.915 3.416-.334.578-.873.992-1.518 1.165C48.432 43.993 48.213 44.021 47.996 44.021zM48.003 40.021c-.519 0-1.024.269-1.302.75-.414.716-.167 1.635.549 2.049.717.415 1.636.168 2.049-.549.414-.716.167-1.636-.549-2.049C48.515 40.085 48.257 40.021 48.003 40.021zM15.996 44.021c-.433 0-.861-.114-1.246-.336-.578-.334-.992-.873-1.165-1.518s-.084-1.319.25-1.897c.689-1.194 2.221-1.605 3.415-.916 1.194.69 1.604 2.222.915 3.416-.334.578-.873.992-1.518 1.165C16.432 43.993 16.213 44.021 15.996 44.021zM16.003 40.021c-.519 0-1.024.269-1.302.75-.414.716-.167 1.635.549 2.049.717.415 1.636.168 2.049-.549.414-.716.167-1.636-.549-2.049C16.515 40.085 16.257 40.021 16.003 40.021z"></path>
    <circle cx="16" cy="25.52" r=".5" fill="#437abe"></circle>
    <circle cx="16" cy="27.52" r=".5" fill="#437abe"></circle>
    <circle cx="16" cy="29.52" r=".5" fill="#437abe"></circle>
    <circle cx="16" cy="31.52" r=".5" fill="#437abe"></circle>
    <circle cx="16" cy="33.52" r=".5" fill="#437abe"></circle>
    <circle cx="16" cy="35.52" r=".5" fill="#437abe"></circle>
    <circle cx="16" cy="37.52" r=".5" fill="#437abe"></circle>
    <circle cx="48" cy="25.52" r=".5" fill="#437abe"></circle>
    <circle cx="48" cy="27.52" r=".5" fill="#437abe"></circle>
    <circle cx="48" cy="29.52" r=".5" fill="#437abe"></circle>
    <circle cx="48" cy="31.52" r=".5" fill="#437abe"></circle>
    <circle cx="48" cy="33.52" r=".5" fill="#437abe"></circle>
    <circle cx="48" cy="35.52" r=".5" fill="#437abe"></circle>
    <circle cx="48" cy="37.52" r=".5" fill="#437abe"></circle>
    <g>
        <circle cx="27.99" cy="15.096" r=".5" fill="#437abe" transform="rotate(-29.834 27.99 15.096)"></circle>
        <circle cx="26.255" cy="16.091" r=".5" fill="#437abe" transform="rotate(-29.834 26.255 16.09)"></circle>
        <circle cx="24.52" cy="17.086" r=".5" fill="#437abe" transform="rotate(-29.834 24.52 17.086)"></circle>
        <circle cx="22.785" cy="18.081" r=".5" fill="#437abe" transform="rotate(-29.834 22.786 18.08)"></circle>
        <circle cx="21.05" cy="19.076" r=".5" fill="#437abe" transform="rotate(-29.834 21.05 19.076)"></circle>
        <circle cx="19.316" cy="20.071" r=".5" fill="#437abe" transform="rotate(-29.834 19.316 20.07)"></circle>
        <circle cx="17.581" cy="21.066" r=".5" fill="#437abe" transform="rotate(-29.834 17.581 21.066)"></circle>
    </g>
    <g>
        <circle cx="44.837" cy="44.04" r=".5" fill="#437abe" transform="rotate(-29.834 44.837 44.04)"></circle>
        <circle cx="43.102" cy="45.035" r=".5" fill="#437abe" transform="rotate(-29.834 43.102 45.035)"></circle>
        <circle cx="41.367" cy="46.03" r=".5" fill="#437abe" transform="rotate(-29.834 41.367 46.03)"></circle>
        <circle cx="39.632" cy="47.025" r=".5" fill="#437abe" transform="rotate(-29.834 39.633 47.025)"></circle>
        <circle cx="37.897" cy="48.02" r=".5" fill="#437abe" transform="rotate(-29.834 37.898 48.02)"></circle>
        <circle cx="36.162" cy="49.015" r=".5" fill="#437abe" transform="rotate(-29.834 36.163 49.015)"></circle>
        <circle cx="34.427" cy="50.01" r=".5" fill="#437abe" transform="rotate(-29.834 34.428 50.01)"></circle>
    </g>
    <g>
        <circle cx="36.427" cy="15.096" r=".5" fill="#437abe" transform="rotate(-60.166 36.425 15.095)"></circle>
        <circle cx="38.162" cy="16.091" r=".5" fill="#437abe" transform="rotate(-60.166 38.16 16.09)"></circle>
        <circle cx="39.897" cy="17.086" r=".5" fill="#437abe" transform="rotate(-60.166 39.895 17.085)"></circle>
        <circle cx="41.632" cy="18.081" r=".5" fill="#437abe" transform="rotate(-60.166 41.63 18.08)"></circle>
        <circle cx="43.367" cy="19.076" r=".5" fill="#437abe" transform="rotate(-60.166 43.365 19.075)"></circle>
        <circle cx="45.102" cy="20.071" r=".5" fill="#437abe" transform="rotate(-60.166 45.1 20.07)"></circle>
        <circle cx="46.837" cy="21.066" r=".5" fill="#437abe" transform="rotate(-60.166 46.834 21.065)"></circle>
    </g>
    <g>
        <circle cx="19.581" cy="44.04" r=".5" fill="#437abe" transform="rotate(-60.166 19.58 44.038)"></circle>
        <circle cx="21.316" cy="45.035" r=".5" fill="#437abe" transform="rotate(-60.166 21.314 45.033)"></circle>
        <circle cx="23.05" cy="46.03" r=".5" fill="#437abe" transform="rotate(-60.166 23.049 46.028)"></circle>
        <circle cx="24.785" cy="47.025" r=".5" fill="#437abe" transform="rotate(-60.166 24.784 47.023)"></circle>
        <circle cx="26.52" cy="48.02" r=".5" fill="#437abe" transform="rotate(-60.166 26.519 48.018)"></circle>
        <circle cx="28.255" cy="49.015" r=".5" fill="#437abe" transform="rotate(-60.166 28.253 49.013)"></circle>
        <circle cx="29.99" cy="50.01" r=".5" fill="#437abe" transform="rotate(-60.166 29.988 50.008)"></circle>
    </g>
</svg>