<svg xmlns="http://www.w3.org/2000/svg" viewBox="0 0 144 144" id="design"><path fill="#528AC8" d="M46.961 104.861h20.998v5.003H46.961z" opacity=".3"></path><path fill="none" stroke="#3D6CB4" stroke-linecap="round" stroke-linejoin="round" stroke-miterlimit="10" d="M91.732 104.989H15.683c-6.623 0-12.042-5.419-12.042-12.042v-58.82c0-6.623 5.419-12.042 12.042-12.042h83.771c6.623 0 12.042 5.419 12.042 12.042v22.536"></path><path fill="none" stroke="#3D6CB4" stroke-linecap="round" stroke-linejoin="round" stroke-miterlimit="10" d="M91.732 87.74h-75.97c-3.558 0-6.469-2.911-6.469-6.469V34.467c0-3.558 2.911-6.47 6.47-6.47h83.613c3.558 0 6.469 2.911 6.469 6.469v21.675"></path><path fill="#528AC8" d="M9.292 36.519v-2.052c0-3.558 2.911-6.47 6.47-6.47h83.613c3.558 0 6.469 2.911 6.469 6.469v2.053H9.292z" opacity=".3"></path><path fill="none" stroke="#3D6CB4" stroke-linecap="round" stroke-linejoin="round" stroke-miterlimit="10" d="M9.292 36.519v-2.052c0-3.558 2.911-6.47 6.47-6.47h83.613c3.558 0 6.469 2.911 6.469 6.469v2.053H9.292z"></path><circle cx="57.569" cy="96.613" r="3.605" fill="#528AC8" opacity=".3"></circle><circle cx="57.569" cy="96.613" r="3.605" fill="none" stroke="#3D6CB4" stroke-linecap="round" stroke-linejoin="round" stroke-miterlimit="10"></circle><path fill="none" stroke="#3D6CB4" stroke-linecap="round" stroke-linejoin="round" stroke-miterlimit="10" d="M68.111 105.247s-1.904 12.308 7.468 12.308H56.836h1.171-18.45c9.371 0 7.321-12.18 7.321-12.18M16.538 42.927h35.955v13.434H16.538zM58.36 44.555h30M58.36 50.555h35M58.36 54.555h30"></path><path fill="#528AC8" d="M16.538 63.77h17.978v17.978H16.538z" opacity=".3"></path><path fill="none" stroke="#3D6CB4" stroke-linecap="round" stroke-linejoin="round" stroke-miterlimit="10" d="M16.538 63.77h17.978v17.978H16.538zM41.035 63.77h17.978v17.978H41.035zM65.532 63.77H83.51v17.978H65.532zM134.727 124.88H96.596a4.836 4.836 0 0 1-4.822-4.822V61.48a4.836 4.836 0 0 1 4.822-4.822h38.131a4.836 4.836 0 0 1 4.822 4.822v58.578a4.836 4.836 0 0 1-4.822 4.822z"></path><path fill="none" stroke="#3D6CB4" stroke-linecap="round" stroke-linejoin="round" stroke-miterlimit="10" d="M133.102 113.904h-34.88a3.11 3.11 0 0 1-3.11-3.11V63.66a3.11 3.11 0 0 1 3.11-3.11h34.88a3.11 3.11 0 0 1 3.11 3.11v47.134a3.11 3.11 0 0 1-3.11 3.11z"></path><circle cx="117.456" cy="119.246" r="2.206" fill="#528AC8" opacity=".3"></circle><circle cx="117.456" cy="119.246" r="2.206" fill="none" stroke="#3D6CB4" stroke-linecap="round" stroke-linejoin="round" stroke-miterlimit="10"></circle><path fill="#528AC8" d="M100.96 65.646h30.596v25.649H100.96z" opacity=".3"></path><path fill="none" stroke="#3D6CB4" stroke-linecap="round" stroke-linejoin="round" stroke-miterlimit="10" d="M100.318 65.646h31.238v25.649h-31.238zM101.36 98.555h24M101.36 102.555h20M125.538 40.51v6.231M128.654 43.625h-6.231M135.663 18.369v10.408M140.867 23.573H130.46"></path></svg>